<?xml version="1.0" standalone="no"?>
<!DOCTYPE svg PUBLIC "-//W3C//DTD SVG 20010904//EN"
 "http://www.w3.org/TR/2001/REC-SVG-20010904/DTD/svg10.dtd">
<svg version="1.0" xmlns="http://www.w3.org/2000/svg"
 width="300.000000pt" height="300.000000pt" viewBox="0 0 300.000000 300.000000"
 preserveAspectRatio="xMidYMid meet">
<metadata>
Created by potrace 1.11, written by Peter Selinger 2001-2013
</metadata>
<g transform="translate(0.000000,300.000000) scale(0.100000,-0.100000)"
fill="#000000" stroke="none">
<path d="M1429 2737 c-52 -17 -942 -533 -975 -565 -15 -15 -35 -45 -45 -67
-17 -37 -19 -78 -19 -605 0 -526 2 -568 19 -605 10 -22 31 -53 47 -68 49 -46
943 -557 996 -569 35 -8 61 -8 96 0 53 12 947 523 996 569 16 15 37 46 47 68
17 37 19 79 19 605 0 527 -2 568 -19 605 -10 22 -30 52 -45 67 -33 32 -923
548 -975 565 -20 6 -52 11 -71 11 -19 0 -51 -5 -71 -11z m752 -1237 c92 -17
109 -28 109 -66 0 -19 -2 -34 -4 -34 -2 0 -23 9 -47 20 -89 40 -191 19 -236
-49 -31 -45 -32 -132 -3 -179 29 -47 98 -76 162 -69 64 8 68 11 68 58 0 39 0
39 -40 39 -38 0 -40 2 -40 30 l0 30 75 0 75 0 0 -94 0 -93 -58 -17 c-114 -32
-207 -14 -275 52 -125 122 -57 329 120 371 21 5 39 9 39 10 1 1 26 -4 55 -9z
m-1231 -157 c0 -180 -8 -221 -51 -257 -39 -33 -91 -34 -149 -3 -52 27 -55 35
-32 65 l18 24 37 -22 c20 -12 46 -20 59 -18 40 5 48 41 48 211 l0 157 35 0 35
0 0 -157z m201 78 c35 -44 66 -80 69 -80 3 0 34 36 69 80 60 75 65 79 103 79
47 0 49 4 -49 -112 -40 -47 -73 -92 -73 -98 0 -6 37 -56 83 -111 45 -55 84
-104 85 -109 2 -6 -12 -10 -32 -10 -33 0 -42 8 -108 85 -40 47 -76 84 -81 82
-5 -1 -39 -39 -76 -82 -59 -70 -71 -80 -104 -83 -20 -2 -37 1 -37 6 0 4 38 54
85 110 47 55 85 105 85 110 0 5 -36 53 -80 107 -44 54 -80 99 -80 101 0 2 18
4 39 4 37 0 43 -5 102 -79z m391 -80 c3 -152 4 -161 27 -185 47 -50 162 -41
192 16 8 14 14 81 17 176 l5 153 31 -3 31 -3 3 -124 c3 -158 -8 -218 -51 -258
-90 -85 -253 -66 -304 37 -21 40 -23 58 -23 197 l0 153 34 0 35 0 3 -159z"/>
</g>
</svg>
